<svg x="0" y="0" width="100%" height="100%" viewBox='0 0 24 24' fill="none" xmlns="http://www.w3.org/2000/svg">
<path d="M0 2.00452C0 1.42731 0.202708 0.951123 0.608108 0.575954C1.01351 0.200768 1.54055 0.0131836 2.18919 0.0131836C2.82626 0.0131836 3.34169 0.197876 3.73552 0.567296C4.14092 0.948248 4.34363 1.44463 4.34363 2.05647C4.34363 2.61059 4.14672 3.07233 3.7529 3.44175C3.3475 3.82271 2.81467 4.01318 2.15444 4.01318H2.13707C1.49999 4.01318 0.984562 3.82271 0.590734 3.44175C0.196905 3.0608 0 2.58172 0 2.00452ZM0.225869 17.156V5.58894H4.08301V17.156H0.225869ZM6.22008 17.156H10.0772V10.6972C10.0772 10.2931 10.1236 9.98142 10.2162 9.7621C10.3784 9.3696 10.6245 9.0377 10.9546 8.76643C11.2847 8.49514 11.6988 8.3595 12.1969 8.3595C13.4942 8.3595 14.1429 9.23107 14.1429 10.9742V17.156H18V10.524C18 8.81548 17.5946 7.51967 16.7838 6.63656C15.973 5.75344 14.9015 5.31188 13.5695 5.31188C12.0753 5.31188 10.9112 5.95258 10.0772 7.23396V7.26859H10.0598L10.0772 7.23396V5.58894H6.22008C6.24324 5.95834 6.25483 7.10696 6.25483 9.03483C6.25483 10.9627 6.24324 13.6697 6.22008 17.156Z" fill="white"/>
</svg>
