<svg version="1.1" xmlns="http://www.w3.org/2000/svg" width="64" height="65">
  <path d="M0 0 C2.375 0.8125 2.375 0.8125 4.375 2.8125 C4.72201137 5.86532155 4.81796774 8.89515966 4.93359375 11.96484375 C5.43202529 15.18038884 6.09968531 15.68164974 8.375 17.8125 C8.76578556 20.53757798 8.51116953 23.04371956 8.375 25.8125 C6.395 26.8025 6.395 26.8025 4.375 27.8125 C4.42720703 29.05966797 4.42720703 29.05966797 4.48046875 30.33203125 C4.50753906 31.41871094 4.53460938 32.50539062 4.5625 33.625 C4.61470703 35.24341797 4.61470703 35.24341797 4.66796875 36.89453125 C4.375 39.8125 4.375 39.8125 3 41.66796875 C1.375 42.8125 1.375 42.8125 -0.8125 43.3125 C-4.32220504 42.68855244 -6.43464759 41.15275124 -9.36328125 39.18359375 C-12.58546138 37.23025139 -15.9916712 35.99180692 -19.5234375 34.70703125 C-21.625 33.8125 -21.625 33.8125 -23.625 31.8125 C-24.07369661 28.52006396 -23.94908242 25.19452257 -23.9375 21.875 C-23.95361328 20.95525391 -23.96972656 20.03550781 -23.98632812 19.08789062 C-23.98697266 18.20423828 -23.98761719 17.32058594 -23.98828125 16.41015625 C-23.99126221 15.60070557 -23.99424316 14.79125488 -23.99731445 13.95727539 C-23.53239967 11.2790614 -22.7475105 10.46474813 -20.625 8.8125 C-18.31959604 7.73683157 -16.04756656 6.74775858 -13.6875 5.8125 C-9.31409239 4.06858668 -4.44613819 -0.3175813 0 0 Z" transform="translate(47.625,9.1875)"/>
  <path d="M0 0 C2.76692708 0.13020833 5.53385417 0.26041667 8.30078125 0.390625 C8.30078125 6.660625 8.30078125 12.930625 8.30078125 19.390625 C4.34078125 19.390625 0.38078125 19.390625 -3.69921875 19.390625 C-5.62388294 15.54129662 -5.99471421 14.01706085 -6.01171875 9.890625 C-6.02847656 8.9521875 -6.04523437 8.01375 -6.0625 7.046875 C-5.48458077 2.82122898 -4.37965338 0.6338138 0 0 Z" transform="translate(13.69921875,20.609375)"/>
  <path d="M0 0 C2.97 0 5.94 0 9 0 C9.87890625 6.93359375 9.87890625 6.93359375 10 9 C9 10 9 10 5.5625 10.25 C4.386875 10.1675 3.21125 10.085 2 10 C-0.4294516 6.3558226 -0.16179575 4.28758728 0 0 Z" transform="translate(15,43)"/>
</svg>
