<svg x="0" y="0" width="100%" height="100%" viewBox='0 0 24 24' fill="none" xmlns="http://www.w3.org/2000/svg">
<path d="M12.0271 0.285957V0.282715H12.8711L13.1794 0.344307C13.385 0.384293 13.5717 0.436695 13.7394 0.501528C13.9071 0.566362 14.0694 0.642007 14.2263 0.728446C14.3832 0.814885 14.5255 0.902962 14.6532 0.992643C14.7798 1.08125 14.8934 1.17526 14.9941 1.27467C15.0936 1.37516 15.2489 1.4011 15.4599 1.35247C15.6709 1.30384 15.8981 1.2363 16.1416 1.14986C16.385 1.06343 16.6258 0.966175 16.8638 0.858113C17.1019 0.750052 17.2469 0.681442 17.2988 0.652267C17.3497 0.622022 17.3768 0.605813 17.38 0.603641L17.3832 0.598779L17.3995 0.590675L17.4157 0.58257L17.4319 0.574466L17.4482 0.566362L17.4514 0.561499L17.4563 0.558258L17.4612 0.555016L17.4644 0.550154L17.4806 0.545291L17.4968 0.542049L17.4936 0.566362L17.4887 0.590675L17.4806 0.614987L17.4725 0.6393L17.4644 0.655508L17.4563 0.671717L17.4482 0.696029C17.4427 0.712238 17.4373 0.733843 17.4319 0.760863C17.4265 0.787882 17.3751 0.895928 17.2777 1.08503C17.1803 1.27413 17.0586 1.46593 16.9125 1.66043C16.7665 1.85493 16.6355 2.00188 16.5198 2.1013C16.4029 2.20179 16.3255 2.27202 16.2876 2.31201C16.2498 2.35306 16.2038 2.39088 16.1497 2.42547L16.0685 2.47895L16.0523 2.48706L16.0361 2.49516L16.0328 2.50003L16.028 2.50327L16.0231 2.50651L16.0198 2.51137L16.0036 2.51948L15.9874 2.52758L15.9841 2.53244L15.9793 2.53568L15.9744 2.53893L15.9711 2.54379L15.9679 2.54865L15.963 2.55189L15.9582 2.55513L15.9549 2.56H16.0361L16.4905 2.46275C16.7935 2.39791 17.083 2.31958 17.3589 2.22772L17.7971 2.08185L17.8458 2.06564L17.8702 2.05754L17.8864 2.04943L17.9026 2.04133L17.9188 2.03322L17.9351 2.02512L17.9675 2.02026L18 2.01701V2.04943L17.9919 2.05267L17.9838 2.05754L17.9805 2.0624L17.9757 2.06564L17.9708 2.06888L17.9675 2.07374L17.9643 2.07861L17.9594 2.08185L17.9546 2.08509L17.9513 2.08995L17.9481 2.09481L17.9432 2.09806L17.9351 2.11426L17.927 2.13047L17.9221 2.13372C17.9199 2.13696 17.8512 2.22879 17.716 2.40926C17.5807 2.59079 17.5077 2.68263 17.4968 2.6848C17.486 2.68804 17.4709 2.70425 17.4514 2.73343C17.433 2.76367 17.3183 2.88416 17.1073 3.09487C16.8963 3.30558 16.6897 3.49305 16.4873 3.65731C16.2839 3.82263 16.1811 4.02577 16.1789 4.26674C16.1757 4.50663 16.1632 4.77786 16.1416 5.0804C16.1199 5.38297 16.0794 5.70983 16.0198 6.06101C15.9603 6.4122 15.8684 6.80931 15.7439 7.25233C15.6195 7.69535 15.468 8.12758 15.2894 8.549C15.1109 8.97042 14.9243 9.34861 14.7295 9.68359C14.5347 10.0186 14.3562 10.3022 14.1939 10.5345C14.0316 10.7668 13.8666 10.9857 13.6988 11.191C13.5311 11.3963 13.319 11.6275 13.0626 11.8847C12.8051 12.1408 12.6644 12.2813 12.6406 12.3061C12.6157 12.3299 12.5097 12.4185 12.3225 12.5719C12.1363 12.7264 11.9362 12.881 11.7219 13.0355C11.5088 13.1889 11.3129 13.317 11.1344 13.4196C10.9558 13.5223 10.7405 13.6395 10.4884 13.7714C10.2373 13.9043 9.96573 14.0274 9.67358 14.1409C9.38142 14.2544 9.07304 14.3597 8.74842 14.457C8.42381 14.5542 8.11001 14.6299 7.80703 14.6839C7.50407 14.7379 7.16051 14.7838 6.77637 14.8217L6.20018 14.8784V14.8865H5.14518V14.8784L5.00721 14.8703C4.91525 14.8649 4.8395 14.8595 4.77998 14.8541C4.72048 14.8487 4.49594 14.819 4.1064 14.7649C3.71686 14.7109 3.41119 14.6569 3.18936 14.6028C2.96755 14.5488 2.63751 14.4462 2.19928 14.2949C1.76105 14.1436 1.38611 13.9907 1.07448 13.8362C0.763937 13.6827 0.569167 13.5855 0.490171 13.5444C0.412263 13.5044 0.324617 13.4548 0.227232 13.3953L0.0811542 13.3062L0.0779243 13.3013L0.0730388 13.2981L0.0681695 13.2948L0.0649234 13.29L0.0486925 13.2819L0.0324617 13.2738L0.0292317 13.2689L0.0243463 13.2656L0.019477 13.2624L0.0162308 13.2575L0.0130009 13.2527L0.00811542 13.2494H0V13.217L0.0162308 13.2203L0.0324617 13.2251L0.1055 13.2332C0.154193 13.2386 0.28675 13.2467 0.503156 13.2575C0.719578 13.2684 0.949504 13.2684 1.19297 13.2575C1.43643 13.2467 1.68531 13.2224 1.93959 13.1846C2.19387 13.1468 2.49414 13.082 2.8404 12.9901C3.18667 12.8983 3.50479 12.7891 3.79479 12.6627C4.08369 12.5352 4.28927 12.4401 4.41156 12.3774C4.53274 12.3158 4.71777 12.2013 4.96664 12.0338L5.33995 11.7826L5.34319 11.7777L5.34806 11.7745L5.35295 11.7712L5.35618 11.7664L5.35942 11.7615L5.36429 11.7583L5.36918 11.755L5.37241 11.7502L5.38864 11.7453L5.40487 11.7421L5.40812 11.7259L5.41298 11.7096L5.41787 11.7064L5.4211 11.7015L5.29125 11.6934C5.20469 11.688 5.12083 11.6826 5.03968 11.6772C4.95852 11.6718 4.83139 11.6475 4.65825 11.6043C4.48513 11.5611 4.29848 11.4962 4.09829 11.4098C3.89811 11.3233 3.70334 11.2207 3.51398 11.1018C3.32463 10.983 3.18774 10.8841 3.10334 10.8052C3.02002 10.7274 2.91181 10.6172 2.77872 10.4746C2.64671 10.3309 2.53201 10.1833 2.43463 10.0321C2.33724 9.8808 2.24419 9.70627 2.15547 9.50854L2.02074 9.21355L2.01262 9.18924L2.00451 9.16492L1.99964 9.14871L1.99639 9.13251L2.02074 9.13575L2.04509 9.14061L2.22362 9.16492C2.34266 9.18113 2.52932 9.18653 2.78359 9.18113C3.03788 9.17573 3.21371 9.16492 3.31109 9.14871C3.40848 9.13251 3.46799 9.12169 3.48963 9.1163L3.52209 9.10819L3.56267 9.10009L3.60325 9.09198L3.60649 9.08712L3.61136 9.08388L3.61625 9.08064L3.61948 9.07578L3.58702 9.06767L3.55455 9.05957L3.52209 9.05146L3.48963 9.04336L3.45717 9.03526C3.43553 9.02986 3.39767 9.01905 3.34355 9.00284C3.28946 8.98663 3.14338 8.92719 2.90532 8.82455C2.66728 8.7219 2.47791 8.62194 2.33724 8.52469C2.19622 8.42716 2.06176 8.32049 1.93472 8.20538C1.80812 8.08868 1.66908 7.93848 1.51758 7.75479C1.3661 7.5711 1.23085 7.35769 1.11181 7.11456C0.992792 6.87143 0.903522 6.63912 0.844004 6.4176C0.784724 6.19738 0.745615 5.97224 0.727158 5.74495L0.697926 5.40457L0.714157 5.40781L0.730388 5.41268L0.746619 5.42078L0.762849 5.42888L0.77908 5.43699L0.795311 5.44509L1.04689 5.55855C1.21462 5.6342 1.42291 5.69903 1.67178 5.75305C1.92066 5.80708 2.06943 5.8368 2.11812 5.8422L2.19116 5.8503H2.33724L2.33401 5.84544L2.32913 5.8422L2.32426 5.83896L2.32101 5.83409L2.31778 5.82923L2.31289 5.82599L2.30803 5.82275L2.30478 5.81789L2.28855 5.80978L2.27232 5.80168L2.26909 5.79682L2.2642 5.79357L2.25933 5.79033L2.25609 5.78547L2.23986 5.77737L2.22362 5.76926L2.22039 5.7644C2.21715 5.76223 2.17061 5.72765 2.08079 5.66066C1.99206 5.59259 1.89901 5.50453 1.80162 5.39647C1.70424 5.28841 1.60685 5.17495 1.50947 5.05609C1.4119 4.93696 1.32501 4.80951 1.24977 4.67519C1.17404 4.54013 1.09396 4.3683 1.00956 4.15977C0.926245 3.9523 0.862945 3.74321 0.819657 3.5325C0.776386 3.32179 0.75204 3.11379 0.746619 2.90848C0.741214 2.70317 0.746619 2.52758 0.762849 2.3817C0.77908 2.23583 0.811542 2.07104 0.860234 1.88735C0.908927 1.70366 0.979271 1.50916 1.07124 1.30384L1.2092 0.995885L1.21731 0.971572L1.22543 0.94726L1.23031 0.944018L1.23354 0.939155L1.23679 0.934293L1.24166 0.931051L1.24654 0.934293L1.24977 0.939155L1.25302 0.944018L1.25789 0.94726L1.26278 0.950501L1.26601 0.955364L1.26925 0.960226L1.27412 0.963468L1.28224 0.979676L1.29035 0.995885L1.29524 0.999126L1.29847 1.00399L1.51758 1.24712C1.66366 1.4092 1.8368 1.5902 2.03697 1.7901C2.23716 1.99 2.34807 2.09373 2.3697 2.1013C2.39135 2.10994 2.41839 2.13478 2.45086 2.17586C2.48332 2.21584 2.59153 2.31147 2.77547 2.46275C2.95943 2.61402 3.20019 2.78962 3.49775 2.98952C3.79532 3.18942 4.12534 3.38663 4.48783 3.58113C4.85033 3.77563 5.23987 3.95121 5.65645 4.1079C6.07304 4.26459 6.3652 4.36723 6.53291 4.41586C6.70064 4.46448 6.98738 4.52661 7.39315 4.60226C7.79892 4.6779 8.10461 4.72653 8.31019 4.74813C8.51579 4.76974 8.65646 4.78217 8.73219 4.78541L8.84581 4.78865L8.84258 4.76434L8.83769 4.74003L8.80523 4.53742C8.78359 4.40236 8.77277 4.21325 8.77277 3.97013C8.77277 3.727 8.79171 3.50279 8.82958 3.29748C8.86746 3.09217 8.92427 2.88416 9 2.67345C9.07575 2.46275 9.14988 2.29363 9.22236 2.16613C9.29595 2.03971 9.39225 1.89545 9.51127 1.73337C9.63031 1.57128 9.7845 1.4038 9.97385 1.23091C10.1632 1.05801 10.3796 0.904032 10.6231 0.768967C10.8665 0.633902 11.0911 0.531238 11.2967 0.461007C11.5023 0.390776 11.6754 0.344842 11.8161 0.323236C11.9567 0.30163 12.0271 0.289198 12.0271 0.285957Z" fill="white"/>
</svg>
