<svg width="20" height="15" viewBox="0 0 20 15" fill="none" xmlns="http://www.w3.org/2000/svg">
<path d="M10.4386 14.5646L6.37644 14.4887C5.06119 14.4623 3.74267 14.5151 2.45321 14.241C0.491647 13.8315 0.352683 11.8236 0.207272 10.1393C0.00690975 7.7715 0.0844759 5.36068 0.462585 3.0126C0.67604 1.69509 1.51607 0.908915 2.81515 0.823364C7.2005 0.51289 11.615 0.549684 15.9906 0.694532C16.4528 0.70781 16.9181 0.780386 17.3737 0.862997C19.6231 1.26592 19.6779 3.54131 19.8237 5.45677C19.9691 7.39199 19.9077 9.33715 19.6298 11.2592C19.4068 12.8506 18.9802 14.1851 17.1798 14.314C14.9241 14.4824 12.7201 14.6181 10.458 14.5749C10.4581 14.5646 10.4451 14.5646 10.4386 14.5646ZM8.05045 10.5357C9.75036 9.53825 11.4178 8.55747 13.108 7.56674C11.4049 6.56933 9.74064 5.58854 8.05045 4.59782V10.5357Z" fill="white"/>
</svg>
