<?xml version="1.0" encoding="UTF-8"?>
<svg id="Camada_2" xmlns="http://www.w3.org/2000/svg" xmlns:xlink="http://www.w3.org/1999/xlink" viewBox="0 0 253.72 132.89">
  <defs>
    <style>
      .cls-1 {
        fill: url(#Gradiente_sem_nome_30-2);
      }

      .cls-2 {
        fill: url(#Gradiente_sem_nome_11);
      }

      .cls-3, .cls-4 {
        fill: #fff;
      }

      .cls-5 {
        fill: #f5b5a2;
      }

      .cls-6 {
        fill: #141315;
      }

      .cls-7 {
        fill: url(#Gradiente_sem_nome_30);
      }

      .cls-4 {
        stroke: #e74517;
        stroke-linecap: round;
        stroke-linejoin: round;
        stroke-width: 3px;
      }

      .cls-8 {
        fill: #e74517;
      }
    </style>
    <linearGradient id="Gradiente_sem_nome_11" data-name="Gradiente sem nome 11" x1="94.12" y1="74.43" x2="169.78" y2="74.43" gradientUnits="userSpaceOnUse">
      <stop offset=".58" stop-color="#e74517"/>
      <stop offset=".66" stop-color="#e44416"/>
      <stop offset=".71" stop-color="#da4115"/>
      <stop offset=".77" stop-color="#ca3c14"/>
      <stop offset=".81" stop-color="#b33511"/>
      <stop offset=".86" stop-color="#962c0e"/>
      <stop offset=".9" stop-color="#72220b"/>
      <stop offset=".94" stop-color="#471507"/>
      <stop offset=".98" stop-color="#170702"/>
      <stop offset="1" stop-color="#000"/>
    </linearGradient>
    <linearGradient id="Gradiente_sem_nome_30" data-name="Gradiente sem nome 30" x1="205.83" y1="36.63" x2="253.72" y2="36.63" gradientTransform="translate(193.14 266.41) rotate(-90)" gradientUnits="userSpaceOnUse">
      <stop offset=".49" stop-color="#141315"/>
      <stop offset=".5" stop-color="#2a1815"/>
      <stop offset=".55" stop-color="#562215"/>
      <stop offset=".59" stop-color="#7d2b15"/>
      <stop offset=".64" stop-color="#9e3316"/>
      <stop offset=".69" stop-color="#b83a16"/>
      <stop offset=".74" stop-color="#cd3e16"/>
      <stop offset=".81" stop-color="#db4216"/>
      <stop offset=".88" stop-color="#e44416"/>
      <stop offset="1" stop-color="#e74517"/>
    </linearGradient>
    <linearGradient id="Gradiente_sem_nome_30-2" data-name="Gradiente sem nome 30" x1="192.65" y1="54.84" x2="240.53" y2="54.84" gradientTransform="translate(161.75 271.43) rotate(-90)" xlink:href="#Gradiente_sem_nome_30"/>
  </defs>
  <g id="Camada_2-2" data-name="Camada_2">
    <path class="cls-5" d="M228.82,39.2C209.58,7.77,167.02-7.16,137.78,3.33c-32.73,11.74-40.26,52.27-71.63,52.14-11.72-.05-15.59-5.73-24.93-2.47-19.19,6.69-34.12,41.56-21,62,12.37,19.27,43.47,16.05,53.15,15.05,21.97-2.28,28.32-11.26,46.91-18.04,52.24-19.07,89.16,20.06,110.93.99,16.51-14.45,11.48-51.12-2.4-73.8Z"/>
    <line class="cls-4" x1="52.43" y1="107.01" x2="7.95" y2="107.01"/>
    <rect class="cls-8" x="14.12" y="86.91" width="13.66" height="41.9" rx="4.5" ry="4.5" transform="translate(128.81 86.91) rotate(90)"/>
    <path class="cls-6" d="M60.12,82.35c-.09,0-.17,0-.26,0-6.06-.14-10.85-5.17-10.71-11.22.68-28.9,21.85-53.32,50.35-58.06,5.98-1,11.63,3.04,12.62,9.02.99,5.98-3.04,11.63-9.02,12.62-18.12,3.02-31.59,18.55-32.02,36.94-.14,5.97-5.02,10.71-10.96,10.71Z"/>
    <path class="cls-2" d="M109.45,132.89c-1.64,0-3.33-.08-5.32-.26-6.03-.53-10.5-5.85-9.97-11.89.53-6.04,5.85-10.49,11.89-9.97,1.34.12,2.42.17,3.4.17,21.17,0,38.39-17.22,38.39-38.39,0-15.6-9.32-29.53-23.74-35.49-5.6-2.32-8.26-8.73-5.94-14.33,2.32-5.6,8.73-8.26,14.33-5.94,22.65,9.37,37.29,31.26,37.29,55.77,0,33.27-27.07,60.33-60.33,60.33Z"/>
    <path class="cls-3" d="M79.6,122.79c-2.31,0-4.65-.73-6.63-2.24-5.91-4.49-10.87-9.92-14.74-16.12-3.2-5.14-1.63-11.91,3.51-15.11,5.14-3.21,11.91-1.63,15.11,3.51,2.45,3.93,5.61,7.38,9.39,10.26,4.82,3.67,5.76,10.55,2.1,15.37-2.16,2.84-5.43,4.33-8.74,4.33Z"/>
    <line class="cls-4" x1="170.22" y1="37.97" x2="235.28" y2="37.97"/>
    <rect class="cls-7" x="222.95" y="12.69" width="13.66" height="47.88" rx="4.5" ry="4.5" transform="translate(266.41 -193.14) rotate(90)"/>
    <rect class="cls-1" x="209.76" y="30.9" width="13.66" height="47.88" rx="4.5" ry="4.5" transform="translate(271.43 -161.75) rotate(90)"/>
  </g>
</svg>