<svg width="108" height="107" viewBox="0 0 108 107" fill="none" xmlns="http://www.w3.org/2000/svg">
<g clip-path="url(#clip0_3654_2278)">
<path d="M106.5 30.211V53.551C77.55 53.551 54.09 30.081 54.09 1.14099H77.43C77.43 17.201 90.45 30.211 106.5 30.211Z" stroke="#F55A2A" stroke-width="2" stroke-miterlimit="10"/>
<path d="M1.68 30.211V53.551C30.63 53.551 54.09 30.081 54.09 1.14099H30.75C30.75 17.201 17.73 30.211 1.68 30.211Z" stroke="#F55A2A" stroke-width="2" stroke-miterlimit="10"/>
<path d="M106.32 76.891V53.551C77.37 53.551 53.91 77.021 53.91 105.961H77.25C77.25 89.901 90.27 76.891 106.32 76.891Z" stroke="#F55A2A" stroke-width="2" stroke-miterlimit="10"/>
<path d="M1.5 76.891V53.551C30.45 53.551 53.91 77.021 53.91 105.961H30.57C30.57 89.901 17.55 76.891 1.5 76.891Z" stroke="#F55A2A" stroke-width="2" stroke-miterlimit="10"/>
</g>
<defs>
<clipPath id="clip0_3654_2278">
<rect width="107" height="106.82" fill="white" transform="translate(0.5 0.140991)"/>
</clipPath>
</defs>
</svg>
