<svg width="108" height="108" viewBox="0 0 108 108" fill="none" xmlns="http://www.w3.org/2000/svg">
<g clip-path="url(#clip0_3654_2284)">
<path d="M30.62 106.141H54C54 77.141 30.5 53.641 1.5 53.641V77.021C17.58 77.021 30.62 90.061 30.62 106.141Z" stroke="#F55A2A" stroke-width="2" stroke-miterlimit="10"/>
<path d="M30.62 1.14099H54C54 30.141 30.5 53.641 1.5 53.641V30.261C17.58 30.261 30.62 17.221 30.62 1.14099Z" stroke="#F55A2A" stroke-width="2" stroke-miterlimit="10"/>
<path d="M83.12 106.141H106.5C106.5 77.141 83 53.641 54 53.641V77.021C70.08 77.021 83.12 90.061 83.12 106.141Z" stroke="#F55A2A" stroke-width="2" stroke-miterlimit="10"/>
<path d="M83.12 1.14099H106.5C106.5 30.141 83 53.641 54 53.641V30.261C70.08 30.261 83.12 17.221 83.12 1.14099Z" stroke="#F55A2A" stroke-width="2" stroke-miterlimit="10"/>
</g>
<defs>
<clipPath id="clip0_3654_2284">
<rect width="107" height="107" fill="white" transform="translate(0.5 0.140991)"/>
</clipPath>
</defs>
</svg>
