<svg width="108" height="108" viewBox="0 0 108 108" fill="none" xmlns="http://www.w3.org/2000/svg">
<g clip-path="url(#clip0_3654_2265)">
<path d="M63.71 39.121V20.071C87.34 20.071 106.5 39.231 106.5 62.861H87.45C87.45 49.751 76.82 39.121 63.71 39.121Z" stroke="#F55A2A" stroke-width="2" stroke-miterlimit="10"/>
<path d="M63.71 20.191V1.14099C40.08 1.14099 20.92 20.301 20.92 43.931H39.97C39.97 30.821 50.6 20.191 63.71 20.191Z" stroke="#F55A2A" stroke-width="2" stroke-miterlimit="10"/>
<path d="M44.29 68.981V88.031C20.66 88.031 1.5 68.871 1.5 45.241H20.55C20.55 58.351 31.18 68.981 44.29 68.981Z" stroke="#F55A2A" stroke-width="2" stroke-miterlimit="10"/>
<path d="M44.29 87.911V106.961C67.92 106.961 87.08 87.801 87.08 64.171H68.03C68.03 77.281 57.4 87.911 44.29 87.911Z" stroke="#F55A2A" stroke-width="2" stroke-miterlimit="10"/>
</g>
<defs>
<clipPath id="clip0_3654_2265">
<rect width="107" height="107.82" fill="white" transform="translate(0.5 0.140991)"/>
</clipPath>
</defs>
</svg>
