<?xml version="1.0" encoding="utf-8"?>
<!-- Generator: Adobe Illustrator 24.1.3, SVG Export Plug-In . SVG Version: 6.00 Build 0)  -->
<svg version="1.1" id="Layer_1" xmlns="http://www.w3.org/2000/svg" xmlns:xlink="http://www.w3.org/1999/xlink" x="0px" y="0px"
	 viewBox="0 0 24 24" style="enable-background:new 0 0 24 24;" xml:space="preserve">
<style type="text/css">
	.st0{fill:#EB582D;}
</style>
<g>
	<g>
		<g>
			<g>
				<rect x="21.8" y="22.3" class="st0" width="0.5" height="1"/>
				<rect x="19.3" y="22.3" class="st0" width="0.5" height="1"/>
				<rect x="16.7" y="22.3" class="st0" width="0.5" height="1"/>
				<rect x="14.2" y="22.3" class="st0" width="0.5" height="1"/>
				<rect x="11.7" y="22.3" class="st0" width="0.5" height="1"/>
				<rect x="9.2" y="22.3" class="st0" width="0.5" height="1"/>
				<rect x="6.7" y="22.3" class="st0" width="0.5" height="1"/>
				<rect x="4.2" y="22.3" class="st0" width="0.5" height="1"/>
				<rect x="1.7" y="22.3" class="st0" width="0.5" height="1"/>
			</g>
			<g>
				<rect x="0.5" y="21.6" class="st0" width="1" height="0.5"/>
				<rect x="0.5" y="19.1" class="st0" width="1" height="0.5"/>
				<rect x="0.5" y="16.6" class="st0" width="1" height="0.5"/>
				<rect x="0.5" y="14.1" class="st0" width="1" height="0.5"/>
				<rect x="0.5" y="11.6" class="st0" width="1" height="0.5"/>
				<rect x="0.5" y="9" class="st0" width="1" height="0.5"/>
				<rect x="0.5" y="6.5" class="st0" width="1" height="0.5"/>
				<rect x="0.5" y="4" class="st0" width="1" height="0.5"/>
				<rect x="0.5" y="1.5" class="st0" width="1" height="0.5"/>
			</g>
			<rect x="1" y="0.8" class="st0" width="0.5" height="22"/>
			<rect x="1" y="22.3" class="st0" width="22" height="0.5"/>
			<polygon class="st0" points="19.5,18.8 20,18.3 13.5,10.8 9,16 2.3,16 2.3,14.5 8.4,14.5 13.5,8.6 21.1,17.3 21.7,16.9 
				22.3,19.7 			"/>
			<g>
				<polygon class="st0" points="15.3,13 14.2,14.2 12.5,12.2 11.7,13.1 14.2,16 16,13.9 				"/>
				<polygon class="st0" points="9.2,10.3 10.6,11.8 11.4,10.9 9.2,8.5 6.9,11.2 2.9,6.5 2,7.3 6.9,13 				"/>
				<polygon class="st0" points="16.4,11.7 17.2,12.6 19.8,9.6 20.3,10 20.8,7.6 18.4,8.4 18.9,8.8 				"/>
			</g>
		</g>
	</g>
</g>
</svg>
