<svg width="108" height="107" viewBox="0 0 108 107" fill="none" xmlns="http://www.w3.org/2000/svg">
<g clip-path="url(#clip0_3654_2272)">
<path d="M54.09 24.481V1.14099C83.04 1.14099 106.5 24.611 106.5 53.551H83.16C83.16 37.491 70.14 24.481 54.09 24.481Z" stroke="#F55A2A" stroke-width="2" stroke-miterlimit="10"/>
<path d="M1.67999 24.481V1.14099C30.63 1.14099 54.09 24.611 54.09 53.551H30.75C30.75 37.491 17.73 24.481 1.67999 24.481Z" stroke="#F55A2A" stroke-width="2" stroke-miterlimit="10"/>
<path d="M53.91 76.891V53.551C82.86 53.551 106.32 77.021 106.32 105.961H82.98C82.98 89.901 69.96 76.891 53.91 76.891Z" stroke="#F55A2A" stroke-width="2" stroke-miterlimit="10"/>
<path d="M1.5 76.891V53.551C30.45 53.551 53.91 77.021 53.91 105.961H30.57C30.57 89.901 17.55 76.891 1.5 76.891Z" stroke="#F55A2A" stroke-width="2" stroke-miterlimit="10"/>
</g>
<defs>
<clipPath id="clip0_3654_2272">
<rect width="107" height="106.82" fill="white" transform="translate(0.5 0.140991)"/>
</clipPath>
</defs>
</svg>
