<svg width="154" height="80" viewBox="0 0 154 80" fill="none" xmlns="http://www.w3.org/2000/svg">
<g clip-path="url(#clip0_2494_226)">
<path d="M40.1862 51.8134C33.3274 51.8134 27.772 46.2554 27.772 39.3991C27.772 32.5428 33.3274 26.9849 40.1862 26.9849V51.8134Z" fill="#EB582F"/>
<path d="M39.7914 79.5854C17.8153 79.5854 0 61.7701 0 39.7939C0 17.8178 17.8153 0 39.7914 0C39.923 0 40.0546 0 40.1862 0.00253094V16.889C34.3221 16.8434 28.4452 19.058 23.9705 23.5301C15.1122 32.3884 15.1122 46.7515 23.9705 55.6123C28.4452 60.0845 34.3221 62.299 40.1862 62.2535V79.5803C40.0546 79.5828 39.923 79.5828 39.7914 79.5828" fill="#EB582F"/>
<path d="M40.1863 62.256V51.8134C47.0401 51.8134 52.6005 46.2554 52.6005 39.3991C52.6005 32.5428 47.0426 26.9849 40.1863 26.9849V16.8915C45.9366 16.9345 51.6666 19.1516 56.0527 23.5327C64.911 32.3909 64.911 46.754 56.0527 55.6148C51.6666 60.001 45.9366 62.213 40.1863 62.256Z" fill="#EB582F"/>
<path d="M79.6815 40.9378L85.3128 48.2801H79.5145L75.1182 41.3909H75.0701V48.2801H70.4132V30.3661H77.3758C79.15 30.3813 80.6306 30.8293 81.8176 31.7075C83.0046 32.5858 83.5994 33.9854 83.5994 35.9013C83.5994 37.1364 83.2628 38.2348 82.5896 39.1915C81.9163 40.1507 80.947 40.7404 79.679 40.9606V40.9378H79.6815ZM75.0727 38.3968H75.5232C75.6016 38.412 75.6801 38.4196 75.7611 38.4196H75.9762C76.6722 38.3892 77.31 38.2247 77.8896 37.9336C78.4667 37.64 78.7577 37.0579 78.7577 36.1873C78.7577 35.3166 78.4692 34.7193 77.8896 34.4232C77.31 34.1271 76.6748 33.9626 75.9762 33.9297H75.0727V38.3968Z" fill="#EB582F"/>
<path d="M98.9976 42.459V42.9095H89.8989C89.8989 43.7979 90.1292 44.4737 90.5873 44.9419C91.0454 45.4101 91.7186 45.643 92.607 45.643C93.0651 45.643 93.465 45.5569 93.8067 45.3823C94.1458 45.2076 94.4369 44.9242 94.6748 44.5268H98.8331C98.4838 45.977 97.7119 47.0299 96.5173 47.693C95.3202 48.3536 94.0269 48.6851 92.6323 48.6851C90.6202 48.6851 88.9422 48.1359 87.5957 47.035C86.2493 45.934 85.576 44.3294 85.576 42.2237C85.576 40.1179 86.2063 38.6044 87.4641 37.4478C88.7245 36.2911 90.3418 35.7141 92.3235 35.7141C94.447 35.7141 96.0896 36.324 97.2538 37.5439C98.418 38.7639 99.0001 40.4115 99.0001 42.4869V42.4641L98.9976 42.459ZM94.981 40.4166C94.8697 39.8471 94.5811 39.3865 94.1129 39.0397C93.6447 38.6905 93.1182 38.5158 92.5336 38.5158C91.9009 38.5158 91.3466 38.6753 90.8708 38.9967C90.395 39.3181 90.0938 39.7914 89.9672 40.4166H94.981Z" fill="#EB582F"/>
<path d="M101.065 30.3637H107.671C110.174 30.3789 112.315 31.252 114.097 32.9781C115.879 34.7042 116.77 36.8277 116.77 39.346C116.77 41.8643 115.874 43.9827 114.085 45.7012C112.295 47.4197 110.157 48.2802 107.669 48.2802H101.063V30.3662L101.065 30.3637ZM105.722 44.3345H106.768C108.162 44.3496 109.369 43.9573 110.392 43.155C111.414 42.3527 111.926 41.0797 111.926 39.3333C111.926 37.7287 111.45 36.4911 110.501 35.6179C109.552 34.7447 108.322 34.3069 106.818 34.3069H105.725V44.3345H105.722Z" fill="#EB582F"/>
<path d="M131.358 42.459V42.9095H122.257C122.257 43.7979 122.487 44.4737 122.945 44.9419C123.403 45.4101 124.077 45.643 124.965 45.643C125.423 45.643 125.823 45.5569 126.165 45.3823C126.504 45.2076 126.795 44.9242 127.033 44.5268H131.191C130.842 45.977 130.07 47.0299 128.875 47.693C127.678 48.3536 126.385 48.6851 124.99 48.6851C122.978 48.6851 121.3 48.1359 119.954 47.035C118.607 45.934 117.934 44.3294 117.934 42.2237C117.934 40.1179 118.564 38.6044 119.822 37.4478C121.083 36.2911 122.7 35.7141 124.682 35.7141C126.805 35.7141 128.448 36.324 129.612 37.5439C130.776 38.7639 131.358 40.4115 131.358 42.4869V42.4641V42.459ZM127.342 40.4166C127.23 39.8471 126.942 39.3865 126.473 39.0397C126.005 38.6905 125.479 38.5158 124.894 38.5158C124.261 38.5158 123.707 38.6753 123.231 38.9967C122.756 39.3181 122.454 39.7914 122.328 40.4166H127.342Z" fill="#EB582F"/>
<path d="M137.653 37.6123H137.701C138.207 36.9466 138.781 36.4632 139.424 36.1621C140.065 35.8609 140.773 35.7115 141.55 35.7115C142.436 35.7115 143.241 35.8988 143.962 36.2709C144.684 36.6429 145.266 37.2326 145.709 38.04C146.121 37.2807 146.706 36.7011 147.468 36.3063C148.227 35.9115 149.019 35.7115 149.844 35.7115C151.396 35.7115 152.476 36.1621 153.086 37.0656C153.696 37.9691 154 39.1258 154 40.5355V48.2802H149.675V41.8643C149.675 41.6744 149.667 41.4846 149.652 41.2948C149.604 40.7557 149.465 40.2647 149.237 39.8218C149.006 39.3789 148.558 39.1562 147.895 39.1562C147.088 39.1562 146.554 39.4168 146.291 39.9407C146.027 40.4646 145.883 41.0341 145.85 41.6517C145.835 41.7934 145.828 41.9377 145.828 42.0794V48.2802H141.505V41.9377C141.505 41.7478 141.497 41.5504 141.482 41.3429C141.434 40.7734 141.285 40.2495 141.031 39.7737C140.778 39.2979 140.295 39.06 139.581 39.06C138.867 39.06 138.384 39.2979 138.131 39.7737C137.878 40.2495 137.726 40.7709 137.68 41.3429C137.665 41.5479 137.658 41.7478 137.658 41.9377V48.2802H133.335V36.0912H137.658V37.6123H137.653Z" fill="#EB582F"/>
</g>
<defs>
<clipPath id="clip0_2494_226">
<rect width="154" height="79.5854" fill="white"/>
</clipPath>
</defs>
</svg>
