<svg width="182" height="84" viewBox="0 0 182 84" fill="none" xmlns="http://www.w3.org/2000/svg">
<g clip-path="url(#clip0_3662_2995)">
<path d="M100.165 42.275C100.165 64.565 82.095 82.615 59.825 82.615C37.555 82.615 19.475 64.565 19.475 42.275H100.165Z" stroke="#E74517" stroke-width="2" stroke-miterlimit="10"/>
<path d="M100.165 42.275C100.165 19.985 118.235 1.935 140.505 1.935C162.775 1.935 180.845 19.995 180.845 42.275H100.155H100.165Z" stroke="#E74517" stroke-width="2" stroke-miterlimit="10"/>
<path d="M81.835 42.275C81.835 64.565 63.765 82.615 41.495 82.615C19.225 82.615 1.14502 64.565 1.14502 42.275H81.835Z" stroke="#E74517" stroke-width="2" stroke-miterlimit="10"/>
<path d="M81.8351 42.275C81.8351 19.985 99.9051 1.935 122.175 1.935C144.445 1.935 162.515 19.995 162.515 42.275H81.8251H81.8351Z" stroke="#E74517" stroke-width="2" stroke-miterlimit="10"/>
</g>
<defs>
<clipPath id="clip0_3662_2995">
<rect width="181.71" height="82.68" fill="white" transform="translate(0.14502 0.934998)"/>
</clipPath>
</defs>
</svg>
