<svg width="112" height="101" viewBox="0 0 112 101" fill="none" xmlns="http://www.w3.org/2000/svg">
<g clip-path="url(#clip0_3662_3011)">
<path d="M56.0051 99.55C86.1157 99.55 110.525 88.5183 110.525 74.91C110.525 61.3017 86.1157 50.27 56.0051 50.27C25.8945 50.27 1.48511 61.3017 1.48511 74.91C1.48511 88.5183 25.8945 99.55 56.0051 99.55Z" stroke="#E74517" stroke-width="2" stroke-miterlimit="10"/>
<path d="M56.0051 74.91C86.1157 74.91 110.525 63.8783 110.525 50.27C110.525 36.6617 86.1157 25.63 56.0051 25.63C25.8945 25.63 1.48511 36.6617 1.48511 50.27C1.48511 63.8783 25.8945 74.91 56.0051 74.91Z" stroke="#E74517" stroke-width="2" stroke-miterlimit="10"/>
<path d="M56.0051 50.28C86.1157 50.28 110.525 39.2483 110.525 25.64C110.525 12.0317 86.1157 1 56.0051 1C25.8945 1 1.48511 12.0317 1.48511 25.64C1.48511 39.2483 25.8945 50.28 56.0051 50.28Z" stroke="#E74517" stroke-width="2" stroke-miterlimit="10"/>
</g>
<defs>
<clipPath id="clip0_3662_3011">
<rect width="111.03" height="100.55" fill="white" transform="translate(0.485107)"/>
</clipPath>
</defs>
</svg>
