<svg width="104" height="96" viewBox="0 0 104 96" fill="none" xmlns="http://www.w3.org/2000/svg">
<g clip-path="url(#clip0_3662_2980)">
<path d="M44.6 91.14L73.51 92.35C75.63 84.84 77.74 77.33 79.86 69.82C82.32 68.83 84.78 67.84 87.25 66.85C83.98 59.97 80.72 53.1 77.45 46.22C77.09 42.65 76.72 39.08 76.36 35.51H76.25C74.87 16.22 58.8 1 39.16 1C19.52 1 3.45004 16.22 2.07004 35.51H1.96004L2.03004 35.99C1.99004 36.71 1.97004 37.45 1.96004 38.19C1.85004 46.07 3.31004 53.22 5.44004 59.44C7.32004 71.48 9.20004 83.52 11.08 95.55" stroke="#E74517" stroke-width="2" stroke-miterlimit="10"/>
<path d="M59.19 91.14L88.1 92.35C90.22 84.84 92.33 77.33 94.45 69.82C96.91 68.83 99.37 67.84 101.84 66.85C98.57 59.97 95.31 53.1 92.04 46.22C91.68 42.65 91.31 39.08 90.95 35.51H90.84C89.46 16.22 73.38 1 53.74 1C34.1 1 18.03 16.22 16.66 35.51H16.55L16.62 35.99C16.58 36.71 16.56 37.45 16.55 38.19C16.44 46.07 17.9 53.22 20.03 59.44C21.91 71.48 23.79 83.52 25.67 95.55" stroke="#E74517" stroke-width="2" stroke-miterlimit="10"/>
</g>
<defs>
<clipPath id="clip0_3662_2980">
<rect width="102.38" height="95.72" fill="white" transform="translate(0.810059)"/>
</clipPath>
</defs>
</svg>
